<svg width="80" height="80" viewBox="0 0 80 80" fill="none" xmlns="http://www.w3.org/2000/svg">
<ellipse cx="40" cy="39.9561" rx="40" ry="39.9561" fill="#003069"/>
<path d="M27.1226 36.9897C27.1226 36.9897 20.4855 21.3507 28.7179 17.9865C37.5595 14.3831 51.5033 18.4714 51.5033 18.4714C56.3577 21.2855 54.9398 30.7946 52.0021 36.6938C48.2977 37.7288 27.1226 36.9897 27.1226 36.9897Z" fill="black"/>
<path d="M51.8398 32.8949C55.7049 32.1759 58.9339 40.3908 51.4447 41.2202C51.7176 37.0985 51.8314 33.6456 51.8398 32.8949Z" fill="#FDCA9A"/>
<path d="M27.3903 32.8213C23.5252 32.1023 20.1305 40.3908 27.6196 41.2185C27.3468 37.0968 27.3987 33.5703 27.3903 32.8213Z" fill="#FDCA9A"/>
<path d="M29.0183 56.9715C36.0605 54.9432 46.6715 55.2208 50.7207 56.9715C62.003 59.911 67.4117 60.3888 69.3333 67.2594C45.764 90.5329 18 76.5824 11 67.2594C12.6053 61.8184 14.7716 60.4394 29.0183 56.9715Z" fill="#1967B2"/>
<path d="M48.3203 48.2917C48.3203 48.2917 48.538 55.4884 48.6702 56.3177C49.2561 56.4548 50.7224 56.9715 50.7224 56.9715C48.9313 62.8271 30.5584 63.6448 29.02 56.9715C30.8546 56.4916 31.0722 56.4481 31.0722 56.4481C31.2346 53.2561 31.3434 50.32 31.2915 47.9473C33.1044 49.8451 46.0003 51.2128 48.3203 48.29V48.2917Z" fill="#FDCA9A"/>
<path d="M48.3204 48.2917C48.3204 48.2917 48.3756 49.9956 48.4041 50.855C47.4198 51.9051 39.3297 58.8827 35.6605 61.3791C32.0532 61.6751 29.4335 58.8024 29.0184 56.9715C30.853 56.4916 31.0706 56.4481 31.0706 56.4481C31.233 53.2561 31.3418 50.32 31.2899 47.9473C33.1028 49.8451 45.9987 51.2128 48.3187 48.29L48.3204 48.2917Z" fill="#F9C390"/>
<path d="M26.4438 57.6068C27.5352 65.7164 50.0461 66.9404 53.091 57.6068L50.7224 56.9714C48.168 63.2535 30.1667 63.3839 29.02 56.9714C27.5135 57.3209 26.4438 57.6068 26.4438 57.6068Z" fill="#3C88D2"/>
<path d="M40.0488 53.737C42.5044 53.7487 51.8415 49.9413 51.7076 37.287C52.101 30.4866 52.4609 23.8351 39.6336 18.1433C27.6199 22.0694 27.27 31.7039 27.1227 36.9894C27.116 45.1876 33.3916 53.4109 40.0488 53.737Z" fill="#FFE0C2"/>
<path d="M51.5034 30.0285C50.6463 25.8165 47.8358 21.7834 39.6336 18.1433C35.1274 19.6147 32.2516 21.9741 30.34 24.5323C34.4528 28.1591 47.4926 30.5301 51.5034 30.0268V30.0285Z" fill="url(#paint0_linear_1494_559)"/>
<path d="M38.1272 34.458H41.2708V40.9574C41.2708 41.8235 40.5661 42.5275 39.699 42.5275C38.8319 42.5275 38.1272 41.8235 38.1272 40.9574V34.458Z" fill="url(#paint1_linear_1494_559)"/>
<path d="M45.7552 37.0198C46.4107 37.0198 46.942 36.346 46.942 35.5149C46.942 34.6838 46.4107 34.01 45.7552 34.01C45.0998 34.01 44.5684 34.6838 44.5684 35.5149C44.5684 36.346 45.0998 37.0198 45.7552 37.0198Z" fill="#252836"/>
<path d="M33.3916 37.0198C34.0471 37.0198 34.5784 36.346 34.5784 35.5149C34.5784 34.6838 34.0471 34.01 33.3916 34.01C32.7362 34.01 32.2048 34.6838 32.2048 35.5149C32.2048 36.346 32.7362 37.0198 33.3916 37.0198Z" fill="#252836"/>
<path d="M30.0588 32.2677C30.0689 31.6975 32.2048 29.2178 36.4431 31.7594C36.6942 31.8915 36.7093 32.2426 36.3611 32.246L30.0588 32.2677Z" fill="#252836"/>
<path d="M49.0394 32.2677C49.0294 31.6975 46.8935 29.2178 42.6551 31.7594C42.404 31.8915 42.3889 32.2426 42.7371 32.246L49.0394 32.2677Z" fill="#252836"/>
<path d="M29.1414 17.0317C37.0674 6.66146 49.2837 18.7172 51.0513 13.1709C51.51 14.119 53.507 24.6865 42.9295 24.6865C34.7423 24.5561 25.5056 24.1966 29.1414 17.0317Z" fill="#1A1C23"/>
<path d="M34.5783 45.6895C37.8542 45.8098 41.1836 45.8098 44.5666 45.6895C44.5666 45.6895 39.7741 49.0269 34.5783 45.6895Z" fill="#F1B67E"/>
<path d="M52 18.6462H54V20.644" stroke="white" stroke-linecap="square"/>
<path d="M26.6667 56.6045L24.6667 56.6045L24.6667 54.6067" stroke="white" stroke-linecap="square"/>
<path d="M24.6667 20.644L24.6667 18.6462L26.6667 18.6462" stroke="white" stroke-linecap="square"/>
<path d="M54 54.6067L54 56.6045L52 56.6045" stroke="white" stroke-linecap="square"/>
<rect x="26.25" y="20.228" width="26.1667" height="34.1286" fill="white" fill-opacity="0.1" stroke="white" stroke-width="0.5" stroke-dasharray="1 1"/>
<defs>
<linearGradient id="paint0_linear_1494_559" x1="34.3005" y1="21.0477" x2="46.9127" y2="27.5453" gradientUnits="userSpaceOnUse">
<stop stop-color="#FDCA9A"/>
<stop offset="1" stop-color="#FFE0C2"/>
</linearGradient>
<linearGradient id="paint1_linear_1494_559" x1="39.699" y1="39.1683" x2="39.699" y2="36.0281" gradientUnits="userSpaceOnUse">
<stop stop-color="#FDCA9A"/>
<stop offset="1" stop-color="#FFE0C2"/>
</linearGradient>
</defs>
</svg>
