<svg width="200" height="135" viewBox="0 0 200 135" fill="none" xmlns="http://www.w3.org/2000/svg">
<path d="M0 0H200V135H0V0Z" fill="#F5F5F5"/>
<rect x="17" y="16" width="167" height="103" rx="8" fill="white"/>
<rect x="25" y="24" width="45" height="60" rx="4" fill="#E9E9E9"/>
<rect x="78" y="24" width="55" height="12" rx="6" fill="#E9E9E9"/>
<rect x="78" y="43" width="55" height="12" rx="6" fill="#E9E9E9"/>
<rect x="78" y="62" width="98" height="12" rx="6" fill="#E9E9E9"/>
<rect x="78" y="81" width="98" height="12" rx="6" fill="#E9E9E9"/>
<rect x="78" y="99" width="98" height="12" rx="6" fill="#E9E9E9"/>
<path d="M144.069 24H143V25.069H144.069V24Z" fill="#E9E9E9"/>
<path d="M145.138 24H144.069V25.069H145.138V24Z" fill="#E9E9E9"/>
<path d="M146.207 24H145.138V25.069H146.207V24Z" fill="#E9E9E9"/>
<path d="M147.276 24H146.207V25.069H147.276V24Z" fill="#E9E9E9"/>
<path d="M148.345 24H147.276V25.069H148.345V24Z" fill="#E9E9E9"/>
<path d="M149.414 24H148.345V25.069H149.414V24Z" fill="#E9E9E9"/>
<path d="M150.483 24H149.414V25.069H150.483V24Z" fill="#E9E9E9"/>
<path d="M152.621 24H151.552V25.069H152.621V24Z" fill="#E9E9E9"/>
<path d="M154.759 24H153.69V25.069H154.759V24Z" fill="#E9E9E9"/>
<path d="M160.103 24H159.034V25.069H160.103V24Z" fill="#E9E9E9"/>
<path d="M161.172 24H160.103V25.069H161.172V24Z" fill="#E9E9E9"/>
<path d="M163.31 24H162.241V25.069H163.31V24Z" fill="#E9E9E9"/>
<path d="M165.448 24H164.379V25.069H165.448V24Z" fill="#E9E9E9"/>
<path d="M167.586 24H166.517V25.069H167.586V24Z" fill="#E9E9E9"/>
<path d="M168.655 24H167.586V25.069H168.655V24Z" fill="#E9E9E9"/>
<path d="M169.724 24H168.655V25.069H169.724V24Z" fill="#E9E9E9"/>
<path d="M170.793 24H169.724V25.069H170.793V24Z" fill="#E9E9E9"/>
<path d="M171.862 24H170.793V25.069H171.862V24Z" fill="#E9E9E9"/>
<path d="M172.931 24H171.862V25.069H172.931V24Z" fill="#E9E9E9"/>
<path d="M174 24H172.931V25.069H174V24Z" fill="#E9E9E9"/>
<path d="M144.069 25.069H143V26.1379H144.069V25.069Z" fill="#E9E9E9"/>
<path d="M150.483 25.069H149.414V26.1379H150.483V25.069Z" fill="#E9E9E9"/>
<path d="M153.69 25.069H152.621V26.1379H153.69V25.069Z" fill="#E9E9E9"/>
<path d="M154.759 25.069H153.69V26.1379H154.759V25.069Z" fill="#E9E9E9"/>
<path d="M155.828 25.069H154.759V26.1379H155.828V25.069Z" fill="#E9E9E9"/>
<path d="M156.897 25.069H155.828V26.1379H156.897V25.069Z" fill="#E9E9E9"/>
<path d="M159.034 25.069H157.966V26.1379H159.034V25.069Z" fill="#E9E9E9"/>
<path d="M160.103 25.069H159.034V26.1379H160.103V25.069Z" fill="#E9E9E9"/>
<path d="M167.586 25.069H166.517V26.1379H167.586V25.069Z" fill="#E9E9E9"/>
<path d="M174 25.069H172.931V26.1379H174V25.069Z" fill="#E9E9E9"/>
<path d="M144.069 26.1379H143V27.2069H144.069V26.1379Z" fill="#E9E9E9"/>
<path d="M146.207 26.1379H145.138V27.2069H146.207V26.1379Z" fill="#E9E9E9"/>
<path d="M147.276 26.1379H146.207V27.2069H147.276V26.1379Z" fill="#E9E9E9"/>
<path d="M148.345 26.1379H147.276V27.2069H148.345V26.1379Z" fill="#E9E9E9"/>
<path d="M150.483 26.1379H149.414V27.2069H150.483V26.1379Z" fill="#E9E9E9"/>
<path d="M154.759 26.1379H153.69V27.2069H154.759V26.1379Z" fill="#E9E9E9"/>
<path d="M155.828 26.1379H154.759V27.2069H155.828V26.1379Z" fill="#E9E9E9"/>
<path d="M156.897 26.1379H155.828V27.2069H156.897V26.1379Z" fill="#E9E9E9"/>
<path d="M157.966 26.1379H156.897V27.2069H157.966V26.1379Z" fill="#E9E9E9"/>
<path d="M160.103 26.1379H159.034V27.2069H160.103V26.1379Z" fill="#E9E9E9"/>
<path d="M161.172 26.1379H160.103V27.2069H161.172V26.1379Z" fill="#E9E9E9"/>
<path d="M164.379 26.1379H163.31V27.2069H164.379V26.1379Z" fill="#E9E9E9"/>
<path d="M165.448 26.1379H164.379V27.2069H165.448V26.1379Z" fill="#E9E9E9"/>
<path d="M167.586 26.1379H166.517V27.2069H167.586V26.1379Z" fill="#E9E9E9"/>
<path d="M169.724 26.1379H168.655V27.2069H169.724V26.1379Z" fill="#E9E9E9"/>
<path d="M170.793 26.1379H169.724V27.2069H170.793V26.1379Z" fill="#E9E9E9"/>
<path d="M171.862 26.1379H170.793V27.2069H171.862V26.1379Z" fill="#E9E9E9"/>
<path d="M174 26.1379H172.931V27.2069H174V26.1379Z" fill="#E9E9E9"/>
<path d="M144.069 27.2069H143V28.2759H144.069V27.2069Z" fill="#E9E9E9"/>
<path d="M146.207 27.2069H145.138V28.2759H146.207V27.2069Z" fill="#E9E9E9"/>
<path d="M147.276 27.2069H146.207V28.2759H147.276V27.2069Z" fill="#E9E9E9"/>
<path d="M148.345 27.2069H147.276V28.2759H148.345V27.2069Z" fill="#E9E9E9"/>
<path d="M150.483 27.2069H149.414V28.2759H150.483V27.2069Z" fill="#E9E9E9"/>
<path d="M152.621 27.2069H151.552V28.2759H152.621V27.2069Z" fill="#E9E9E9"/>
<path d="M153.69 27.2069H152.621V28.2759H153.69V27.2069Z" fill="#E9E9E9"/>
<path d="M154.759 27.2069H153.69V28.2759H154.759V27.2069Z" fill="#E9E9E9"/>
<path d="M155.828 27.2069H154.759V28.2759H155.828V27.2069Z" fill="#E9E9E9"/>
<path d="M157.966 27.2069H156.897V28.2759H157.966V27.2069Z" fill="#E9E9E9"/>
<path d="M161.172 27.2069H160.103V28.2759H161.172V27.2069Z" fill="#E9E9E9"/>
<path d="M164.379 27.2069H163.31V28.2759H164.379V27.2069Z" fill="#E9E9E9"/>
<path d="M167.586 27.2069H166.517V28.2759H167.586V27.2069Z" fill="#E9E9E9"/>
<path d="M169.724 27.2069H168.655V28.2759H169.724V27.2069Z" fill="#E9E9E9"/>
<path d="M170.793 27.2069H169.724V28.2759H170.793V27.2069Z" fill="#E9E9E9"/>
<path d="M171.862 27.2069H170.793V28.2759H171.862V27.2069Z" fill="#E9E9E9"/>
<path d="M174 27.2069H172.931V28.2759H174V27.2069Z" fill="#E9E9E9"/>
<path d="M144.069 28.2759H143V29.3448H144.069V28.2759Z" fill="#E9E9E9"/>
<path d="M146.207 28.2759H145.138V29.3448H146.207V28.2759Z" fill="#E9E9E9"/>
<path d="M147.276 28.2759H146.207V29.3448H147.276V28.2759Z" fill="#E9E9E9"/>
<path d="M148.345 28.2759H147.276V29.3448H148.345V28.2759Z" fill="#E9E9E9"/>
<path d="M150.483 28.2759H149.414V29.3448H150.483V28.2759Z" fill="#E9E9E9"/>
<path d="M157.966 28.2759H156.897V29.3448H157.966V28.2759Z" fill="#E9E9E9"/>
<path d="M159.034 28.2759H157.966V29.3448H159.034V28.2759Z" fill="#E9E9E9"/>
<path d="M160.103 28.2759H159.034V29.3448H160.103V28.2759Z" fill="#E9E9E9"/>
<path d="M162.241 28.2759H161.172V29.3448H162.241V28.2759Z" fill="#E9E9E9"/>
<path d="M167.586 28.2759H166.517V29.3448H167.586V28.2759Z" fill="#E9E9E9"/>
<path d="M169.724 28.2759H168.655V29.3448H169.724V28.2759Z" fill="#E9E9E9"/>
<path d="M170.793 28.2759H169.724V29.3448H170.793V28.2759Z" fill="#E9E9E9"/>
<path d="M171.862 28.2759H170.793V29.3448H171.862V28.2759Z" fill="#E9E9E9"/>
<path d="M174 28.2759H172.931V29.3448H174V28.2759Z" fill="#E9E9E9"/>
<path d="M144.069 29.3448H143V30.4138H144.069V29.3448Z" fill="#E9E9E9"/>
<path d="M150.483 29.3448H149.414V30.4138H150.483V29.3448Z" fill="#E9E9E9"/>
<path d="M152.621 29.3448H151.552V30.4138H152.621V29.3448Z" fill="#E9E9E9"/>
<path d="M153.69 29.3448H152.621V30.4138H153.69V29.3448Z" fill="#E9E9E9"/>
<path d="M154.759 29.3448H153.69V30.4138H154.759V29.3448Z" fill="#E9E9E9"/>
<path d="M155.828 29.3448H154.759V30.4138H155.828V29.3448Z" fill="#E9E9E9"/>
<path d="M156.897 29.3448H155.828V30.4138H156.897V29.3448Z" fill="#E9E9E9"/>
<path d="M157.966 29.3448H156.897V30.4138H157.966V29.3448Z" fill="#E9E9E9"/>
<path d="M160.103 29.3448H159.034V30.4138H160.103V29.3448Z" fill="#E9E9E9"/>
<path d="M161.172 29.3448H160.103V30.4138H161.172V29.3448Z" fill="#E9E9E9"/>
<path d="M167.586 29.3448H166.517V30.4138H167.586V29.3448Z" fill="#E9E9E9"/>
<path d="M174 29.3448H172.931V30.4138H174V29.3448Z" fill="#E9E9E9"/>
<path d="M144.069 30.4138H143V31.4828H144.069V30.4138Z" fill="#E9E9E9"/>
<path d="M145.138 30.4138H144.069V31.4828H145.138V30.4138Z" fill="#E9E9E9"/>
<path d="M146.207 30.4138H145.138V31.4828H146.207V30.4138Z" fill="#E9E9E9"/>
<path d="M147.276 30.4138H146.207V31.4828H147.276V30.4138Z" fill="#E9E9E9"/>
<path d="M148.345 30.4138H147.276V31.4828H148.345V30.4138Z" fill="#E9E9E9"/>
<path d="M149.414 30.4138H148.345V31.4828H149.414V30.4138Z" fill="#E9E9E9"/>
<path d="M150.483 30.4138H149.414V31.4828H150.483V30.4138Z" fill="#E9E9E9"/>
<path d="M152.621 30.4138H151.552V31.4828H152.621V30.4138Z" fill="#E9E9E9"/>
<path d="M154.759 30.4138H153.69V31.4828H154.759V30.4138Z" fill="#E9E9E9"/>
<path d="M156.897 30.4138H155.828V31.4828H156.897V30.4138Z" fill="#E9E9E9"/>
<path d="M159.034 30.4138H157.966V31.4828H159.034V30.4138Z" fill="#E9E9E9"/>
<path d="M161.172 30.4138H160.103V31.4828H161.172V30.4138Z" fill="#E9E9E9"/>
<path d="M163.31 30.4138H162.241V31.4828H163.31V30.4138Z" fill="#E9E9E9"/>
<path d="M165.448 30.4138H164.379V31.4828H165.448V30.4138Z" fill="#E9E9E9"/>
<path d="M167.586 30.4138H166.517V31.4828H167.586V30.4138Z" fill="#E9E9E9"/>
<path d="M168.655 30.4138H167.586V31.4828H168.655V30.4138Z" fill="#E9E9E9"/>
<path d="M169.724 30.4138H168.655V31.4828H169.724V30.4138Z" fill="#E9E9E9"/>
<path d="M170.793 30.4138H169.724V31.4828H170.793V30.4138Z" fill="#E9E9E9"/>
<path d="M171.862 30.4138H170.793V31.4828H171.862V30.4138Z" fill="#E9E9E9"/>
<path d="M172.931 30.4138H171.862V31.4828H172.931V30.4138Z" fill="#E9E9E9"/>
<path d="M174 30.4138H172.931V31.4828H174V30.4138Z" fill="#E9E9E9"/>
<path d="M153.69 31.4828H152.621V32.5517H153.69V31.4828Z" fill="#E9E9E9"/>
<path d="M159.034 31.4828H157.966V32.5517H159.034V31.4828Z" fill="#E9E9E9"/>
<path d="M162.241 31.4828H161.172V32.5517H162.241V31.4828Z" fill="#E9E9E9"/>
<path d="M163.31 31.4828H162.241V32.5517H163.31V31.4828Z" fill="#E9E9E9"/>
<path d="M164.379 31.4828H163.31V32.5517H164.379V31.4828Z" fill="#E9E9E9"/>
<path d="M165.448 31.4828H164.379V32.5517H165.448V31.4828Z" fill="#E9E9E9"/>
<path d="M149.414 32.5517H148.345V33.6207H149.414V32.5517Z" fill="#E9E9E9"/>
<path d="M150.483 32.5517H149.414V33.6207H150.483V32.5517Z" fill="#E9E9E9"/>
<path d="M152.621 32.5517H151.552V33.6207H152.621V32.5517Z" fill="#E9E9E9"/>
<path d="M153.69 32.5517H152.621V33.6207H153.69V32.5517Z" fill="#E9E9E9"/>
<path d="M155.828 32.5517H154.759V33.6207H155.828V32.5517Z" fill="#E9E9E9"/>
<path d="M156.897 32.5517H155.828V33.6207H156.897V32.5517Z" fill="#E9E9E9"/>
<path d="M159.034 32.5517H157.966V33.6207H159.034V32.5517Z" fill="#E9E9E9"/>
<path d="M160.103 32.5517H159.034V33.6207H160.103V32.5517Z" fill="#E9E9E9"/>
<path d="M161.172 32.5517H160.103V33.6207H161.172V32.5517Z" fill="#E9E9E9"/>
<path d="M162.241 32.5517H161.172V33.6207H162.241V32.5517Z" fill="#E9E9E9"/>
<path d="M166.517 32.5517H165.448V33.6207H166.517V32.5517Z" fill="#E9E9E9"/>
<path d="M168.655 32.5517H167.586V33.6207H168.655V32.5517Z" fill="#E9E9E9"/>
<path d="M170.793 32.5517H169.724V33.6207H170.793V32.5517Z" fill="#E9E9E9"/>
<path d="M174 32.5517H172.931V33.6207H174V32.5517Z" fill="#E9E9E9"/>
<path d="M144.069 33.6207H143V34.6897H144.069V33.6207Z" fill="#E9E9E9"/>
<path d="M147.276 33.6207H146.207V34.6897H147.276V33.6207Z" fill="#E9E9E9"/>
<path d="M151.552 33.6207H150.483V34.6897H151.552V33.6207Z" fill="#E9E9E9"/>
<path d="M152.621 33.6207H151.552V34.6897H152.621V33.6207Z" fill="#E9E9E9"/>
<path d="M153.69 33.6207H152.621V34.6897H153.69V33.6207Z" fill="#E9E9E9"/>
<path d="M160.103 33.6207H159.034V34.6897H160.103V33.6207Z" fill="#E9E9E9"/>
<path d="M162.241 33.6207H161.172V34.6897H162.241V33.6207Z" fill="#E9E9E9"/>
<path d="M164.379 33.6207H163.31V34.6897H164.379V33.6207Z" fill="#E9E9E9"/>
<path d="M166.517 33.6207H165.448V34.6897H166.517V33.6207Z" fill="#E9E9E9"/>
<path d="M144.069 34.6897H143V35.7586H144.069V34.6897Z" fill="#E9E9E9"/>
<path d="M147.276 34.6897H146.207V35.7586H147.276V34.6897Z" fill="#E9E9E9"/>
<path d="M148.345 34.6897H147.276V35.7586H148.345V34.6897Z" fill="#E9E9E9"/>
<path d="M150.483 34.6897H149.414V35.7586H150.483V34.6897Z" fill="#E9E9E9"/>
<path d="M151.552 34.6897H150.483V35.7586H151.552V34.6897Z" fill="#E9E9E9"/>
<path d="M152.621 34.6897H151.552V35.7586H152.621V34.6897Z" fill="#E9E9E9"/>
<path d="M154.759 34.6897H153.69V35.7586H154.759V34.6897Z" fill="#E9E9E9"/>
<path d="M156.897 34.6897H155.828V35.7586H156.897V34.6897Z" fill="#E9E9E9"/>
<path d="M160.103 34.6897H159.034V35.7586H160.103V34.6897Z" fill="#E9E9E9"/>
<path d="M163.31 34.6897H162.241V35.7586H163.31V34.6897Z" fill="#E9E9E9"/>
<path d="M165.448 34.6897H164.379V35.7586H165.448V34.6897Z" fill="#E9E9E9"/>
<path d="M167.586 34.6897H166.517V35.7586H167.586V34.6897Z" fill="#E9E9E9"/>
<path d="M169.724 34.6897H168.655V35.7586H169.724V34.6897Z" fill="#E9E9E9"/>
<path d="M171.862 34.6897H170.793V35.7586H171.862V34.6897Z" fill="#E9E9E9"/>
<path d="M174 34.6897H172.931V35.7586H174V34.6897Z" fill="#E9E9E9"/>
<path d="M149.414 35.7586H148.345V36.8276H149.414V35.7586Z" fill="#E9E9E9"/>
<path d="M154.759 35.7586H153.69V36.8276H154.759V35.7586Z" fill="#E9E9E9"/>
<path d="M157.966 35.7586H156.897V36.8276H157.966V35.7586Z" fill="#E9E9E9"/>
<path d="M159.034 35.7586H157.966V36.8276H159.034V35.7586Z" fill="#E9E9E9"/>
<path d="M161.172 35.7586H160.103V36.8276H161.172V35.7586Z" fill="#E9E9E9"/>
<path d="M163.31 35.7586H162.241V36.8276H163.31V35.7586Z" fill="#E9E9E9"/>
<path d="M164.379 35.7586H163.31V36.8276H164.379V35.7586Z" fill="#E9E9E9"/>
<path d="M165.448 35.7586H164.379V36.8276H165.448V35.7586Z" fill="#E9E9E9"/>
<path d="M166.517 35.7586H165.448V36.8276H166.517V35.7586Z" fill="#E9E9E9"/>
<path d="M168.655 35.7586H167.586V36.8276H168.655V35.7586Z" fill="#E9E9E9"/>
<path d="M169.724 35.7586H168.655V36.8276H169.724V35.7586Z" fill="#E9E9E9"/>
<path d="M146.207 36.8276H145.138V37.8966H146.207V36.8276Z" fill="#E9E9E9"/>
<path d="M150.483 36.8276H149.414V37.8966H150.483V36.8276Z" fill="#E9E9E9"/>
<path d="M152.621 36.8276H151.552V37.8966H152.621V36.8276Z" fill="#E9E9E9"/>
<path d="M153.69 36.8276H152.621V37.8966H153.69V36.8276Z" fill="#E9E9E9"/>
<path d="M154.759 36.8276H153.69V37.8966H154.759V36.8276Z" fill="#E9E9E9"/>
<path d="M155.828 36.8276H154.759V37.8966H155.828V36.8276Z" fill="#E9E9E9"/>
<path d="M156.897 36.8276H155.828V37.8966H156.897V36.8276Z" fill="#E9E9E9"/>
<path d="M159.034 36.8276H157.966V37.8966H159.034V36.8276Z" fill="#E9E9E9"/>
<path d="M160.103 36.8276H159.034V37.8966H160.103V36.8276Z" fill="#E9E9E9"/>
<path d="M163.31 36.8276H162.241V37.8966H163.31V36.8276Z" fill="#E9E9E9"/>
<path d="M164.379 36.8276H163.31V37.8966H164.379V36.8276Z" fill="#E9E9E9"/>
<path d="M167.586 36.8276H166.517V37.8966H167.586V36.8276Z" fill="#E9E9E9"/>
<path d="M169.724 36.8276H168.655V37.8966H169.724V36.8276Z" fill="#E9E9E9"/>
<path d="M171.862 36.8276H170.793V37.8966H171.862V36.8276Z" fill="#E9E9E9"/>
<path d="M174 36.8276H172.931V37.8966H174V36.8276Z" fill="#E9E9E9"/>
<path d="M144.069 37.8966H143V38.9655H144.069V37.8966Z" fill="#E9E9E9"/>
<path d="M145.138 37.8966H144.069V38.9655H145.138V37.8966Z" fill="#E9E9E9"/>
<path d="M146.207 37.8966H145.138V38.9655H146.207V37.8966Z" fill="#E9E9E9"/>
<path d="M147.276 37.8966H146.207V38.9655H147.276V37.8966Z" fill="#E9E9E9"/>
<path d="M148.345 37.8966H147.276V38.9655H148.345V37.8966Z" fill="#E9E9E9"/>
<path d="M149.414 37.8966H148.345V38.9655H149.414V37.8966Z" fill="#E9E9E9"/>
<path d="M160.103 37.8966H159.034V38.9655H160.103V37.8966Z" fill="#E9E9E9"/>
<path d="M161.172 37.8966H160.103V38.9655H161.172V37.8966Z" fill="#E9E9E9"/>
<path d="M163.31 37.8966H162.241V38.9655H163.31V37.8966Z" fill="#E9E9E9"/>
<path d="M164.379 37.8966H163.31V38.9655H164.379V37.8966Z" fill="#E9E9E9"/>
<path d="M166.517 37.8966H165.448V38.9655H166.517V37.8966Z" fill="#E9E9E9"/>
<path d="M167.586 37.8966H166.517V38.9655H167.586V37.8966Z" fill="#E9E9E9"/>
<path d="M168.655 37.8966H167.586V38.9655H168.655V37.8966Z" fill="#E9E9E9"/>
<path d="M172.931 37.8966H171.862V38.9655H172.931V37.8966Z" fill="#E9E9E9"/>
<path d="M174 37.8966H172.931V38.9655H174V37.8966Z" fill="#E9E9E9"/>
<path d="M145.138 38.9655H144.069V40.0345H145.138V38.9655Z" fill="#E9E9E9"/>
<path d="M147.276 38.9655H146.207V40.0345H147.276V38.9655Z" fill="#E9E9E9"/>
<path d="M148.345 38.9655H147.276V40.0345H148.345V38.9655Z" fill="#E9E9E9"/>
<path d="M149.414 38.9655H148.345V40.0345H149.414V38.9655Z" fill="#E9E9E9"/>
<path d="M150.483 38.9655H149.414V40.0345H150.483V38.9655Z" fill="#E9E9E9"/>
<path d="M151.552 38.9655H150.483V40.0345H151.552V38.9655Z" fill="#E9E9E9"/>
<path d="M153.69 38.9655H152.621V40.0345H153.69V38.9655Z" fill="#E9E9E9"/>
<path d="M155.828 38.9655H154.759V40.0345H155.828V38.9655Z" fill="#E9E9E9"/>
<path d="M160.103 38.9655H159.034V40.0345H160.103V38.9655Z" fill="#E9E9E9"/>
<path d="M161.172 38.9655H160.103V40.0345H161.172V38.9655Z" fill="#E9E9E9"/>
<path d="M165.448 38.9655H164.379V40.0345H165.448V38.9655Z" fill="#E9E9E9"/>
<path d="M167.586 38.9655H166.517V40.0345H167.586V38.9655Z" fill="#E9E9E9"/>
<path d="M169.724 38.9655H168.655V40.0345H169.724V38.9655Z" fill="#E9E9E9"/>
<path d="M170.793 38.9655H169.724V40.0345H170.793V38.9655Z" fill="#E9E9E9"/>
<path d="M174 38.9655H172.931V40.0345H174V38.9655Z" fill="#E9E9E9"/>
<path d="M145.138 40.0345H144.069V41.1034H145.138V40.0345Z" fill="#E9E9E9"/>
<path d="M147.276 40.0345H146.207V41.1034H147.276V40.0345Z" fill="#E9E9E9"/>
<path d="M152.621 40.0345H151.552V41.1034H152.621V40.0345Z" fill="#E9E9E9"/>
<path d="M153.69 40.0345H152.621V41.1034H153.69V40.0345Z" fill="#E9E9E9"/>
<path d="M155.828 40.0345H154.759V41.1034H155.828V40.0345Z" fill="#E9E9E9"/>
<path d="M157.966 40.0345H156.897V41.1034H157.966V40.0345Z" fill="#E9E9E9"/>
<path d="M159.034 40.0345H157.966V41.1034H159.034V40.0345Z" fill="#E9E9E9"/>
<path d="M161.172 40.0345H160.103V41.1034H161.172V40.0345Z" fill="#E9E9E9"/>
<path d="M162.241 40.0345H161.172V41.1034H162.241V40.0345Z" fill="#E9E9E9"/>
<path d="M164.379 40.0345H163.31V41.1034H164.379V40.0345Z" fill="#E9E9E9"/>
<path d="M166.517 40.0345H165.448V41.1034H166.517V40.0345Z" fill="#E9E9E9"/>
<path d="M167.586 40.0345H166.517V41.1034H167.586V40.0345Z" fill="#E9E9E9"/>
<path d="M169.724 40.0345H168.655V41.1034H169.724V40.0345Z" fill="#E9E9E9"/>
<path d="M170.793 40.0345H169.724V41.1034H170.793V40.0345Z" fill="#E9E9E9"/>
<path d="M172.931 40.0345H171.862V41.1034H172.931V40.0345Z" fill="#E9E9E9"/>
<path d="M144.069 41.1034H143V42.1724H144.069V41.1034Z" fill="#E9E9E9"/>
<path d="M146.207 41.1034H145.138V42.1724H146.207V41.1034Z" fill="#E9E9E9"/>
<path d="M148.345 41.1034H147.276V42.1724H148.345V41.1034Z" fill="#E9E9E9"/>
<path d="M150.483 41.1034H149.414V42.1724H150.483V41.1034Z" fill="#E9E9E9"/>
<path d="M154.759 41.1034H153.69V42.1724H154.759V41.1034Z" fill="#E9E9E9"/>
<path d="M156.897 41.1034H155.828V42.1724H156.897V41.1034Z" fill="#E9E9E9"/>
<path d="M159.034 41.1034H157.966V42.1724H159.034V41.1034Z" fill="#E9E9E9"/>
<path d="M160.103 41.1034H159.034V42.1724H160.103V41.1034Z" fill="#E9E9E9"/>
<path d="M161.172 41.1034H160.103V42.1724H161.172V41.1034Z" fill="#E9E9E9"/>
<path d="M164.379 41.1034H163.31V42.1724H164.379V41.1034Z" fill="#E9E9E9"/>
<path d="M165.448 41.1034H164.379V42.1724H165.448V41.1034Z" fill="#E9E9E9"/>
<path d="M166.517 41.1034H165.448V42.1724H166.517V41.1034Z" fill="#E9E9E9"/>
<path d="M168.655 41.1034H167.586V42.1724H168.655V41.1034Z" fill="#E9E9E9"/>
<path d="M170.793 41.1034H169.724V42.1724H170.793V41.1034Z" fill="#E9E9E9"/>
<path d="M145.138 42.1724H144.069V43.2414H145.138V42.1724Z" fill="#E9E9E9"/>
<path d="M146.207 42.1724H145.138V43.2414H146.207V42.1724Z" fill="#E9E9E9"/>
<path d="M151.552 42.1724H150.483V43.2414H151.552V42.1724Z" fill="#E9E9E9"/>
<path d="M154.759 42.1724H153.69V43.2414H154.759V42.1724Z" fill="#E9E9E9"/>
<path d="M156.897 42.1724H155.828V43.2414H156.897V42.1724Z" fill="#E9E9E9"/>
<path d="M157.966 42.1724H156.897V43.2414H157.966V42.1724Z" fill="#E9E9E9"/>
<path d="M160.103 42.1724H159.034V43.2414H160.103V42.1724Z" fill="#E9E9E9"/>
<path d="M161.172 42.1724H160.103V43.2414H161.172V42.1724Z" fill="#E9E9E9"/>
<path d="M163.31 42.1724H162.241V43.2414H163.31V42.1724Z" fill="#E9E9E9"/>
<path d="M164.379 42.1724H163.31V43.2414H164.379V42.1724Z" fill="#E9E9E9"/>
<path d="M167.586 42.1724H166.517V43.2414H167.586V42.1724Z" fill="#E9E9E9"/>
<path d="M144.069 43.2414H143V44.3103H144.069V43.2414Z" fill="#E9E9E9"/>
<path d="M145.138 43.2414H144.069V44.3103H145.138V43.2414Z" fill="#E9E9E9"/>
<path d="M146.207 43.2414H145.138V44.3103H146.207V43.2414Z" fill="#E9E9E9"/>
<path d="M147.276 43.2414H146.207V44.3103H147.276V43.2414Z" fill="#E9E9E9"/>
<path d="M148.345 43.2414H147.276V44.3103H148.345V43.2414Z" fill="#E9E9E9"/>
<path d="M150.483 43.2414H149.414V44.3103H150.483V43.2414Z" fill="#E9E9E9"/>
<path d="M151.552 43.2414H150.483V44.3103H151.552V43.2414Z" fill="#E9E9E9"/>
<path d="M152.621 43.2414H151.552V44.3103H152.621V43.2414Z" fill="#E9E9E9"/>
<path d="M157.966 43.2414H156.897V44.3103H157.966V43.2414Z" fill="#E9E9E9"/>
<path d="M160.103 43.2414H159.034V44.3103H160.103V43.2414Z" fill="#E9E9E9"/>
<path d="M162.241 43.2414H161.172V44.3103H162.241V43.2414Z" fill="#E9E9E9"/>
<path d="M163.31 43.2414H162.241V44.3103H163.31V43.2414Z" fill="#E9E9E9"/>
<path d="M164.379 43.2414H163.31V44.3103H164.379V43.2414Z" fill="#E9E9E9"/>
<path d="M165.448 43.2414H164.379V44.3103H165.448V43.2414Z" fill="#E9E9E9"/>
<path d="M168.655 43.2414H167.586V44.3103H168.655V43.2414Z" fill="#E9E9E9"/>
<path d="M169.724 43.2414H168.655V44.3103H169.724V43.2414Z" fill="#E9E9E9"/>
<path d="M144.069 44.3103H143V45.3793H144.069V44.3103Z" fill="#E9E9E9"/>
<path d="M149.414 44.3103H148.345V45.3793H149.414V44.3103Z" fill="#E9E9E9"/>
<path d="M152.621 44.3103H151.552V45.3793H152.621V44.3103Z" fill="#E9E9E9"/>
<path d="M154.759 44.3103H153.69V45.3793H154.759V44.3103Z" fill="#E9E9E9"/>
<path d="M155.828 44.3103H154.759V45.3793H155.828V44.3103Z" fill="#E9E9E9"/>
<path d="M157.966 44.3103H156.897V45.3793H157.966V44.3103Z" fill="#E9E9E9"/>
<path d="M164.379 44.3103H163.31V45.3793H164.379V44.3103Z" fill="#E9E9E9"/>
<path d="M170.793 44.3103H169.724V45.3793H170.793V44.3103Z" fill="#E9E9E9"/>
<path d="M171.862 44.3103H170.793V45.3793H171.862V44.3103Z" fill="#E9E9E9"/>
<path d="M172.931 44.3103H171.862V45.3793H172.931V44.3103Z" fill="#E9E9E9"/>
<path d="M146.207 45.3793H145.138V46.4483H146.207V45.3793Z" fill="#E9E9E9"/>
<path d="M150.483 45.3793H149.414V46.4483H150.483V45.3793Z" fill="#E9E9E9"/>
<path d="M153.69 45.3793H152.621V46.4483H153.69V45.3793Z" fill="#E9E9E9"/>
<path d="M154.759 45.3793H153.69V46.4483H154.759V45.3793Z" fill="#E9E9E9"/>
<path d="M157.966 45.3793H156.897V46.4483H157.966V45.3793Z" fill="#E9E9E9"/>
<path d="M160.103 45.3793H159.034V46.4483H160.103V45.3793Z" fill="#E9E9E9"/>
<path d="M161.172 45.3793H160.103V46.4483H161.172V45.3793Z" fill="#E9E9E9"/>
<path d="M162.241 45.3793H161.172V46.4483H162.241V45.3793Z" fill="#E9E9E9"/>
<path d="M165.448 45.3793H164.379V46.4483H165.448V45.3793Z" fill="#E9E9E9"/>
<path d="M166.517 45.3793H165.448V46.4483H166.517V45.3793Z" fill="#E9E9E9"/>
<path d="M167.586 45.3793H166.517V46.4483H167.586V45.3793Z" fill="#E9E9E9"/>
<path d="M168.655 45.3793H167.586V46.4483H168.655V45.3793Z" fill="#E9E9E9"/>
<path d="M169.724 45.3793H168.655V46.4483H169.724V45.3793Z" fill="#E9E9E9"/>
<path d="M172.931 45.3793H171.862V46.4483H172.931V45.3793Z" fill="#E9E9E9"/>
<path d="M174 45.3793H172.931V46.4483H174V45.3793Z" fill="#E9E9E9"/>
<path d="M152.621 46.4483H151.552V47.5172H152.621V46.4483Z" fill="#E9E9E9"/>
<path d="M156.897 46.4483H155.828V47.5172H156.897V46.4483Z" fill="#E9E9E9"/>
<path d="M159.034 46.4483H157.966V47.5172H159.034V46.4483Z" fill="#E9E9E9"/>
<path d="M160.103 46.4483H159.034V47.5172H160.103V46.4483Z" fill="#E9E9E9"/>
<path d="M161.172 46.4483H160.103V47.5172H161.172V46.4483Z" fill="#E9E9E9"/>
<path d="M162.241 46.4483H161.172V47.5172H162.241V46.4483Z" fill="#E9E9E9"/>
<path d="M163.31 46.4483H162.241V47.5172H163.31V46.4483Z" fill="#E9E9E9"/>
<path d="M165.448 46.4483H164.379V47.5172H165.448V46.4483Z" fill="#E9E9E9"/>
<path d="M169.724 46.4483H168.655V47.5172H169.724V46.4483Z" fill="#E9E9E9"/>
<path d="M171.862 46.4483H170.793V47.5172H171.862V46.4483Z" fill="#E9E9E9"/>
<path d="M172.931 46.4483H171.862V47.5172H172.931V46.4483Z" fill="#E9E9E9"/>
<path d="M144.069 47.5172H143V48.5862H144.069V47.5172Z" fill="#E9E9E9"/>
<path d="M145.138 47.5172H144.069V48.5862H145.138V47.5172Z" fill="#E9E9E9"/>
<path d="M146.207 47.5172H145.138V48.5862H146.207V47.5172Z" fill="#E9E9E9"/>
<path d="M147.276 47.5172H146.207V48.5862H147.276V47.5172Z" fill="#E9E9E9"/>
<path d="M148.345 47.5172H147.276V48.5862H148.345V47.5172Z" fill="#E9E9E9"/>
<path d="M149.414 47.5172H148.345V48.5862H149.414V47.5172Z" fill="#E9E9E9"/>
<path d="M150.483 47.5172H149.414V48.5862H150.483V47.5172Z" fill="#E9E9E9"/>
<path d="M153.69 47.5172H152.621V48.5862H153.69V47.5172Z" fill="#E9E9E9"/>
<path d="M155.828 47.5172H154.759V48.5862H155.828V47.5172Z" fill="#E9E9E9"/>
<path d="M156.897 47.5172H155.828V48.5862H156.897V47.5172Z" fill="#E9E9E9"/>
<path d="M159.034 47.5172H157.966V48.5862H159.034V47.5172Z" fill="#E9E9E9"/>
<path d="M162.241 47.5172H161.172V48.5862H162.241V47.5172Z" fill="#E9E9E9"/>
<path d="M165.448 47.5172H164.379V48.5862H165.448V47.5172Z" fill="#E9E9E9"/>
<path d="M167.586 47.5172H166.517V48.5862H167.586V47.5172Z" fill="#E9E9E9"/>
<path d="M169.724 47.5172H168.655V48.5862H169.724V47.5172Z" fill="#E9E9E9"/>
<path d="M170.793 47.5172H169.724V48.5862H170.793V47.5172Z" fill="#E9E9E9"/>
<path d="M174 47.5172H172.931V48.5862H174V47.5172Z" fill="#E9E9E9"/>
<path d="M144.069 48.5862H143V49.6552H144.069V48.5862Z" fill="#E9E9E9"/>
<path d="M150.483 48.5862H149.414V49.6552H150.483V48.5862Z" fill="#E9E9E9"/>
<path d="M152.621 48.5862H151.552V49.6552H152.621V48.5862Z" fill="#E9E9E9"/>
<path d="M154.759 48.5862H153.69V49.6552H154.759V48.5862Z" fill="#E9E9E9"/>
<path d="M155.828 48.5862H154.759V49.6552H155.828V48.5862Z" fill="#E9E9E9"/>
<path d="M157.966 48.5862H156.897V49.6552H157.966V48.5862Z" fill="#E9E9E9"/>
<path d="M162.241 48.5862H161.172V49.6552H162.241V48.5862Z" fill="#E9E9E9"/>
<path d="M163.31 48.5862H162.241V49.6552H163.31V48.5862Z" fill="#E9E9E9"/>
<path d="M164.379 48.5862H163.31V49.6552H164.379V48.5862Z" fill="#E9E9E9"/>
<path d="M165.448 48.5862H164.379V49.6552H165.448V48.5862Z" fill="#E9E9E9"/>
<path d="M169.724 48.5862H168.655V49.6552H169.724V48.5862Z" fill="#E9E9E9"/>
<path d="M170.793 48.5862H169.724V49.6552H170.793V48.5862Z" fill="#E9E9E9"/>
<path d="M172.931 48.5862H171.862V49.6552H172.931V48.5862Z" fill="#E9E9E9"/>
<path d="M144.069 49.6552H143V50.7241H144.069V49.6552Z" fill="#E9E9E9"/>
<path d="M146.207 49.6552H145.138V50.7241H146.207V49.6552Z" fill="#E9E9E9"/>
<path d="M147.276 49.6552H146.207V50.7241H147.276V49.6552Z" fill="#E9E9E9"/>
<path d="M148.345 49.6552H147.276V50.7241H148.345V49.6552Z" fill="#E9E9E9"/>
<path d="M150.483 49.6552H149.414V50.7241H150.483V49.6552Z" fill="#E9E9E9"/>
<path d="M154.759 49.6552H153.69V50.7241H154.759V49.6552Z" fill="#E9E9E9"/>
<path d="M155.828 49.6552H154.759V50.7241H155.828V49.6552Z" fill="#E9E9E9"/>
<path d="M159.034 49.6552H157.966V50.7241H159.034V49.6552Z" fill="#E9E9E9"/>
<path d="M160.103 49.6552H159.034V50.7241H160.103V49.6552Z" fill="#E9E9E9"/>
<path d="M163.31 49.6552H162.241V50.7241H163.31V49.6552Z" fill="#E9E9E9"/>
<path d="M164.379 49.6552H163.31V50.7241H164.379V49.6552Z" fill="#E9E9E9"/>
<path d="M165.448 49.6552H164.379V50.7241H165.448V49.6552Z" fill="#E9E9E9"/>
<path d="M166.517 49.6552H165.448V50.7241H166.517V49.6552Z" fill="#E9E9E9"/>
<path d="M167.586 49.6552H166.517V50.7241H167.586V49.6552Z" fill="#E9E9E9"/>
<path d="M168.655 49.6552H167.586V50.7241H168.655V49.6552Z" fill="#E9E9E9"/>
<path d="M169.724 49.6552H168.655V50.7241H169.724V49.6552Z" fill="#E9E9E9"/>
<path d="M170.793 49.6552H169.724V50.7241H170.793V49.6552Z" fill="#E9E9E9"/>
<path d="M171.862 49.6552H170.793V50.7241H171.862V49.6552Z" fill="#E9E9E9"/>
<path d="M172.931 49.6552H171.862V50.7241H172.931V49.6552Z" fill="#E9E9E9"/>
<path d="M174 49.6552H172.931V50.7241H174V49.6552Z" fill="#E9E9E9"/>
<path d="M144.069 50.7241H143V51.7931H144.069V50.7241Z" fill="#E9E9E9"/>
<path d="M146.207 50.7241H145.138V51.7931H146.207V50.7241Z" fill="#E9E9E9"/>
<path d="M147.276 50.7241H146.207V51.7931H147.276V50.7241Z" fill="#E9E9E9"/>
<path d="M148.345 50.7241H147.276V51.7931H148.345V50.7241Z" fill="#E9E9E9"/>
<path d="M150.483 50.7241H149.414V51.7931H150.483V50.7241Z" fill="#E9E9E9"/>
<path d="M153.69 50.7241H152.621V51.7931H153.69V50.7241Z" fill="#E9E9E9"/>
<path d="M154.759 50.7241H153.69V51.7931H154.759V50.7241Z" fill="#E9E9E9"/>
<path d="M155.828 50.7241H154.759V51.7931H155.828V50.7241Z" fill="#E9E9E9"/>
<path d="M156.897 50.7241H155.828V51.7931H156.897V50.7241Z" fill="#E9E9E9"/>
<path d="M160.103 50.7241H159.034V51.7931H160.103V50.7241Z" fill="#E9E9E9"/>
<path d="M161.172 50.7241H160.103V51.7931H161.172V50.7241Z" fill="#E9E9E9"/>
<path d="M163.31 50.7241H162.241V51.7931H163.31V50.7241Z" fill="#E9E9E9"/>
<path d="M169.724 50.7241H168.655V51.7931H169.724V50.7241Z" fill="#E9E9E9"/>
<path d="M170.793 50.7241H169.724V51.7931H170.793V50.7241Z" fill="#E9E9E9"/>
<path d="M144.069 51.7931H143V52.8621H144.069V51.7931Z" fill="#E9E9E9"/>
<path d="M146.207 51.7931H145.138V52.8621H146.207V51.7931Z" fill="#E9E9E9"/>
<path d="M147.276 51.7931H146.207V52.8621H147.276V51.7931Z" fill="#E9E9E9"/>
<path d="M148.345 51.7931H147.276V52.8621H148.345V51.7931Z" fill="#E9E9E9"/>
<path d="M150.483 51.7931H149.414V52.8621H150.483V51.7931Z" fill="#E9E9E9"/>
<path d="M154.759 51.7931H153.69V52.8621H154.759V51.7931Z" fill="#E9E9E9"/>
<path d="M155.828 51.7931H154.759V52.8621H155.828V51.7931Z" fill="#E9E9E9"/>
<path d="M157.966 51.7931H156.897V52.8621H157.966V51.7931Z" fill="#E9E9E9"/>
<path d="M159.034 51.7931H157.966V52.8621H159.034V51.7931Z" fill="#E9E9E9"/>
<path d="M165.448 51.7931H164.379V52.8621H165.448V51.7931Z" fill="#E9E9E9"/>
<path d="M166.517 51.7931H165.448V52.8621H166.517V51.7931Z" fill="#E9E9E9"/>
<path d="M168.655 51.7931H167.586V52.8621H168.655V51.7931Z" fill="#E9E9E9"/>
<path d="M144.069 52.8621H143V53.931H144.069V52.8621Z" fill="#E9E9E9"/>
<path d="M150.483 52.8621H149.414V53.931H150.483V52.8621Z" fill="#E9E9E9"/>
<path d="M154.759 52.8621H153.69V53.931H154.759V52.8621Z" fill="#E9E9E9"/>
<path d="M155.828 52.8621H154.759V53.931H155.828V52.8621Z" fill="#E9E9E9"/>
<path d="M156.897 52.8621H155.828V53.931H156.897V52.8621Z" fill="#E9E9E9"/>
<path d="M159.034 52.8621H157.966V53.931H159.034V52.8621Z" fill="#E9E9E9"/>
<path d="M160.103 52.8621H159.034V53.931H160.103V52.8621Z" fill="#E9E9E9"/>
<path d="M161.172 52.8621H160.103V53.931H161.172V52.8621Z" fill="#E9E9E9"/>
<path d="M163.31 52.8621H162.241V53.931H163.31V52.8621Z" fill="#E9E9E9"/>
<path d="M164.379 52.8621H163.31V53.931H164.379V52.8621Z" fill="#E9E9E9"/>
<path d="M166.517 52.8621H165.448V53.931H166.517V52.8621Z" fill="#E9E9E9"/>
<path d="M167.586 52.8621H166.517V53.931H167.586V52.8621Z" fill="#E9E9E9"/>
<path d="M168.655 52.8621H167.586V53.931H168.655V52.8621Z" fill="#E9E9E9"/>
<path d="M169.724 52.8621H168.655V53.931H169.724V52.8621Z" fill="#E9E9E9"/>
<path d="M172.931 52.8621H171.862V53.931H172.931V52.8621Z" fill="#E9E9E9"/>
<path d="M174 52.8621H172.931V53.931H174V52.8621Z" fill="#E9E9E9"/>
<path d="M144.069 53.931H143V55H144.069V53.931Z" fill="#E9E9E9"/>
<path d="M145.138 53.931H144.069V55H145.138V53.931Z" fill="#E9E9E9"/>
<path d="M146.207 53.931H145.138V55H146.207V53.931Z" fill="#E9E9E9"/>
<path d="M147.276 53.931H146.207V55H147.276V53.931Z" fill="#E9E9E9"/>
<path d="M148.345 53.931H147.276V55H148.345V53.931Z" fill="#E9E9E9"/>
<path d="M149.414 53.931H148.345V55H149.414V53.931Z" fill="#E9E9E9"/>
<path d="M150.483 53.931H149.414V55H150.483V53.931Z" fill="#E9E9E9"/>
<path d="M153.69 53.931H152.621V55H153.69V53.931Z" fill="#E9E9E9"/>
<path d="M156.897 53.931H155.828V55H156.897V53.931Z" fill="#E9E9E9"/>
<path d="M159.034 53.931H157.966V55H159.034V53.931Z" fill="#E9E9E9"/>
<path d="M162.241 53.931H161.172V55H162.241V53.931Z" fill="#E9E9E9"/>
<path d="M163.31 53.931H162.241V55H163.31V53.931Z" fill="#E9E9E9"/>
<path d="M164.379 53.931H163.31V55H164.379V53.931Z" fill="#E9E9E9"/>
<path d="M166.517 53.931H165.448V55H166.517V53.931Z" fill="#E9E9E9"/>
<path d="M170.793 53.931H169.724V55H170.793V53.931Z" fill="#E9E9E9"/>
<path d="M171.862 53.931H170.793V55H171.862V53.931Z" fill="#E9E9E9"/>
</svg>
