<svg width="82" height="82" viewBox="0 0 82 82" fill="none" xmlns="http://www.w3.org/2000/svg">
<rect x="13" y="13" width="56" height="56" rx="28" fill="white"/>
<circle cx="41" cy="41" r="40.5" stroke="#C1D6E9"/>
<path d="M27.3488 35.5473L28.6853 36.2283L27.3488 35.5473ZM28.7469 34.1488L29.4279 35.4853L28.7469 34.1488ZM28.7469 52.6512L29.4279 51.3147L29.4279 51.3147L28.7469 52.6512ZM27.3488 51.2527L26.0123 51.9337L26.0123 51.9337L27.3488 51.2527ZM55.4516 51.2527L54.1151 50.5718L55.4516 51.2527ZM54.0525 52.6512L53.3715 51.3147L54.0525 52.6512ZM55.4516 35.5473L54.1151 36.2283L54.1151 36.2283L55.4516 35.5473ZM54.0525 34.1488L54.7334 32.8123L54.7334 32.8123L54.0525 34.1488ZM35.7852 31.4459L34.3621 30.9715L34.3621 30.9715L35.7852 31.4459ZM35.9537 30.9676L34.5694 30.3899L35.9537 30.9676ZM38.6711 29.0087L38.5608 27.5127L38.6711 29.0087ZM37.0422 33.79L37.2091 32.2994L37.2091 32.2994L37.0422 33.79ZM35.6555 31.8661L34.1885 31.553L35.6555 31.8661ZM47.0156 31.4459L48.4386 30.9716L47.0156 31.4459ZM47.1452 31.8661L45.6782 32.1791L45.6782 32.1791L47.1452 31.8661ZM45.7583 33.79L45.5914 32.2994L45.5914 32.2994L45.7583 33.79ZM46.8469 30.9676L45.4626 31.5453L45.4626 31.5453L46.8469 30.9676ZM44.1289 29.0087L44.0186 30.5046L44.1289 29.0087ZM41.4 46.7C39.5775 46.7 38.1 45.2225 38.1 43.4H35.1C35.1 46.8794 37.9206 49.7 41.4 49.7V46.7ZM38.1 43.4C38.1 41.5775 39.5775 40.1 41.4 40.1V37.1C37.9206 37.1 35.1 39.9206 35.1 43.4H38.1ZM41.4 40.1C43.2225 40.1 44.7 41.5775 44.7 43.4H47.7C47.7 39.9206 44.8794 37.1 41.4 37.1V40.1ZM44.7 43.4C44.7 45.2225 43.2225 46.7 41.4 46.7V49.7C44.8794 49.7 47.7 46.8794 47.7 43.4H44.7ZM54.3 38.92V47.88H57.3V38.92H54.3ZM50.6803 51.5H32.1203V54.5H50.6803V51.5ZM28.5 47.88V38.92H25.5V47.88H28.5ZM32.1203 35.3H50.6803V32.3H32.1203V35.3ZM28.5 38.92C28.5 37.9992 28.5012 37.3988 28.5386 36.9404C28.5746 36.4996 28.6366 36.3238 28.6853 36.2283L26.0123 34.8663C25.7122 35.4552 25.5998 36.0698 25.5486 36.6961C25.4988 37.305 25.5 38.0487 25.5 38.92H28.5ZM32.1203 32.3C31.249 32.3 30.5051 32.2988 29.8961 32.3486C29.2697 32.3997 28.6549 32.5121 28.0659 32.8123L29.4279 35.4853C29.5233 35.4366 29.6992 35.3746 30.1403 35.3386C30.5989 35.3012 31.1995 35.3 32.1203 35.3V32.3ZM28.6853 36.2283C28.8485 35.908 29.1084 35.6481 29.4279 35.4853L28.0659 32.8123C27.1811 33.2631 26.4627 33.9823 26.0123 34.8663L28.6853 36.2283ZM32.1203 51.5C31.1995 51.5 30.5989 51.4988 30.1404 51.4614C29.6992 51.4253 29.5234 51.3633 29.4279 51.3147L28.0659 53.9877C28.6549 54.2878 29.2697 54.4002 29.8961 54.4514C30.5051 54.5012 31.2489 54.5 32.1203 54.5V51.5ZM25.5 47.88C25.5 48.7514 25.4988 49.4951 25.5486 50.1039C25.5998 50.7303 25.7122 51.3448 26.0123 51.9337L28.6853 50.5718C28.6366 50.4762 28.5746 50.3004 28.5386 49.8596C28.5012 49.4013 28.5 48.8009 28.5 47.88H25.5ZM29.4279 51.3147C29.1083 51.1518 28.8484 50.892 28.6853 50.5718L26.0123 51.9337C26.4627 52.8178 27.1812 53.5369 28.0659 53.9877L29.4279 51.3147ZM54.3 47.88C54.3 48.801 54.2989 49.4014 54.2615 49.8598C54.2256 50.3008 54.1637 50.4764 54.1151 50.5718L56.7881 51.9337C57.0882 51.3446 57.2005 50.73 57.2516 50.1037C57.3012 49.4949 57.3 48.7512 57.3 47.88H54.3ZM50.6803 54.5C51.5517 54.5 52.2952 54.5012 52.904 54.4514C53.5303 54.4002 54.1446 54.2877 54.7334 53.9877L53.3715 51.3147C53.2758 51.3634 53.1001 51.4253 52.6595 51.4614C52.2014 51.4988 51.6011 51.5 50.6803 51.5V54.5ZM54.1151 50.5718C53.9524 50.891 53.692 51.1513 53.3715 51.3147L54.7334 53.9877C55.6171 53.5374 56.3371 52.8188 56.7881 51.9337L54.1151 50.5718ZM57.3 38.92C57.3 38.0488 57.3012 37.3051 57.2516 36.6964C57.2005 36.0701 57.0882 35.4554 56.7881 34.8663L54.1151 36.2283C54.1637 36.3236 54.2256 36.4993 54.2615 36.9402C54.2989 37.3986 54.3 37.999 54.3 38.92H57.3ZM50.6803 35.3C51.6012 35.3 52.2014 35.3012 52.6596 35.3386C53.1001 35.3746 53.2758 35.4366 53.3715 35.4853L54.7334 32.8123C54.1446 32.5122 53.5303 32.3998 52.9039 32.3486C52.2952 32.2988 51.5516 32.3 50.6803 32.3V35.3ZM56.7881 34.8663C56.3372 33.9813 55.6172 33.2626 54.7334 32.8123L53.3715 35.4853C53.692 35.6486 53.9524 35.909 54.1151 36.2283L56.7881 34.8663ZM45.3184 32.3H37.4812V35.3H45.3184V32.3ZM39.1781 30.5H43.6217V27.5H39.1781V30.5ZM37.2082 31.9202C37.298 31.6508 37.3191 31.5907 37.338 31.5453L34.5694 30.3899C34.4976 30.5619 34.4366 30.7481 34.3621 30.9715L37.2082 31.9202ZM39.1781 27.5C38.9427 27.5 38.7467 27.499 38.5608 27.5127L38.7814 30.5046C38.8304 30.501 38.8942 30.5 39.1781 30.5V27.5ZM37.338 31.5453C37.5849 30.9537 38.1427 30.5517 38.7814 30.5046L38.5608 27.5127C36.794 27.643 35.2515 28.7555 34.5694 30.3899L37.338 31.5453ZM37.4812 32.3C37.3589 32.3 37.2871 32.2999 37.2342 32.299C37.1818 32.298 37.1846 32.2966 37.2091 32.2994L36.8753 35.2807C37.0692 35.3024 37.2928 35.3 37.4812 35.3V32.3ZM34.3621 30.9715C34.303 31.1489 34.2293 31.362 34.1885 31.553L37.1224 32.1791C37.1172 32.2038 37.1148 32.2063 37.1307 32.1557C37.1466 32.1049 37.1694 32.0366 37.2082 31.9202L34.3621 30.9715ZM37.2091 32.2994C37.1503 32.2928 37.1101 32.237 37.1224 32.1791L34.1885 31.553C33.806 33.3456 35.0538 35.0768 36.8753 35.2807L37.2091 32.2994ZM45.5926 31.9202C45.6313 32.0364 45.654 32.1047 45.6699 32.1553C45.6857 32.2057 45.6834 32.2034 45.6782 32.1791L48.6122 31.553C48.5714 31.3621 48.4981 31.1499 48.4386 30.9716L45.5926 31.9202ZM45.3184 35.3C45.5066 35.3 45.7313 35.3024 45.9252 35.2807L45.5914 32.2994C45.6161 32.2966 45.6189 32.298 45.5659 32.299C45.5128 32.2999 45.4406 32.3 45.3184 32.3V35.3ZM45.6782 32.1791C45.6905 32.2368 45.6504 32.2928 45.5914 32.2994L45.9252 35.2807C47.7466 35.0768 48.9948 33.3458 48.6122 31.553L45.6782 32.1791ZM48.4386 30.9716C48.3636 30.7465 48.3028 30.5615 48.2312 30.3899L45.4626 31.5453C45.4817 31.591 45.5034 31.6525 45.5926 31.9202L48.4386 30.9716ZM43.6217 30.5C43.9057 30.5 43.9696 30.501 44.0186 30.5046L44.2392 27.5127C44.0533 27.499 43.8572 27.5 43.6217 27.5V30.5ZM48.2312 30.3899C47.549 28.7552 46.0056 27.6429 44.2392 27.5127L44.0186 30.5046C44.6576 30.5517 45.2159 30.9541 45.4626 31.5453L48.2312 30.3899Z" fill="#1967B2"/>
</svg>
