<svg width="24" height="24" viewBox="0 0 24 24" fill="none" xmlns="http://www.w3.org/2000/svg">
<path opacity="0.6" d="M0 12C0 18.6274 5.37258 24 12 24C18.6274 24 24 18.6274 24 12C24 5.37258 18.6274 0 12 0C5.37258 0 0 5.37258 0 12Z" fill="white"/>
<path d="M16.5303 9.86367C16.8232 9.57078 16.8232 9.09591 16.5303 8.80301C16.2374 8.51012 15.7626 8.51012 15.4697 8.80301L16.5303 9.86367ZM10.6667 14.6667L10.1363 15.197C10.4292 15.4899 10.9041 15.4899 11.197 15.197L10.6667 14.6667ZM8.53033 11.4697C8.23744 11.1768 7.76256 11.1768 7.46967 11.4697C7.17678 11.7626 7.17678 12.2374 7.46967 12.5303L8.53033 11.4697ZM15.4697 8.80301L10.1363 14.1363L11.197 15.197L16.5303 9.86367L15.4697 8.80301ZM11.197 14.1363L8.53033 11.4697L7.46967 12.5303L10.1363 15.197L11.197 14.1363Z" fill="#1967B2"/>
</svg>
