<svg width="18" height="18" viewBox="0 0 18 18" fill="none" xmlns="http://www.w3.org/2000/svg">
<path d="M12.197 7.75255C12.4899 7.45966 12.4899 6.98479 12.197 6.69189C11.9041 6.399 11.4292 6.399 11.1363 6.69189L12.197 7.75255ZM8.11111 10.7778L7.58078 11.3081C7.87367 11.601 8.34855 11.601 8.64144 11.3081L8.11111 10.7778ZM6.86366 8.46967C6.57077 8.17678 6.0959 8.17678 5.803 8.46967C5.51011 8.76256 5.51011 9.23744 5.803 9.53033L6.86366 8.46967ZM9 16.25C4.99594 16.25 1.75 13.0041 1.75 9H0.25C0.25 13.8325 4.16751 17.75 9 17.75V16.25ZM1.75 9C1.75 4.99594 4.99594 1.75 9 1.75V0.25C4.16751 0.25 0.25 4.16751 0.25 9H1.75ZM9 1.75C13.0041 1.75 16.25 4.99594 16.25 9H17.75C17.75 4.16751 13.8325 0.25 9 0.25V1.75ZM16.25 9C16.25 13.0041 13.0041 16.25 9 16.25V17.75C13.8325 17.75 17.75 13.8325 17.75 9H16.25ZM11.1363 6.69189L7.58078 10.2474L8.64144 11.3081L12.197 7.75255L11.1363 6.69189ZM8.64144 10.2474L6.86366 8.46967L5.803 9.53033L7.58078 11.3081L8.64144 10.2474Z" fill="#1967B2"/>
</svg>
