<svg width="24" height="24" viewBox="0 0 24 24" fill="none" xmlns="http://www.w3.org/2000/svg">
<path opacity="0.7" d="M0 12C0 18.6274 5.37258 24 12 24C18.6274 24 24 18.6274 24 12C24 5.37258 18.6274 0 12 0C5.37258 0 0 5.37258 0 12Z" fill="white"/>
<path d="M12.0664 16.5999H12.8164C12.8164 16.1857 12.4806 15.8499 12.0664 15.8499V16.5999ZM12.0664 16.7333L12.0662 17.4833C12.2652 17.4833 12.456 17.4043 12.5967 17.2637C12.7374 17.123 12.8164 16.9322 12.8164 16.7333H12.0664ZM11.9336 16.7332H11.1836C11.1836 17.1474 11.5193 17.4831 11.9334 17.4832L11.9336 16.7332ZM11.9336 16.5999V15.8499C11.5194 15.8499 11.1836 16.1857 11.1836 16.5999H11.9336ZM12.75 7.2666C12.75 6.85239 12.4142 6.5166 12 6.5166C11.5858 6.5166 11.25 6.85239 11.25 7.2666H12.75ZM11.25 12.5999C11.25 13.0141 11.5858 13.3499 12 13.3499C12.4142 13.3499 12.75 13.0141 12.75 12.5999H11.25ZM11.3164 16.5999V16.7333H12.8164V16.5999H11.3164ZM12.0666 15.9833L11.9338 15.9832L11.9334 17.4832L12.0662 17.4833L12.0666 15.9833ZM12.6836 16.7332V16.5999H11.1836V16.7332H12.6836ZM11.9336 17.3499H12.0664V15.8499H11.9336V17.3499ZM11.25 7.2666V12.5999H12.75V7.2666H11.25Z" fill="#EC2222"/>
</svg>
