<svg width="80" height="80" viewBox="0 0 80 80" fill="none" xmlns="http://www.w3.org/2000/svg">
<circle cx="40" cy="40" r="40" fill="#003069"/>
<path d="M51.0819 58.2825C44.2386 56.3094 33.9273 56.5794 29.9924 58.2825C19.0289 61.1422 13.8675 61.9829 12.0001 68.6667C25.6667 81.6667 50.0001 85.3334 68.3335 68.3334C68.6668 67.6667 64.9262 61.6562 51.0819 58.2825Z" fill="#1967B2"/>
<path d="M32.2731 51.4718C32.2942 51.5921 32.1364 56.9682 31.9868 57.6449C31.4175 57.7783 29.9925 58.2809 29.9925 58.2809C31.733 63.9774 49.5871 64.7728 51.0819 58.2809C49.2991 57.8141 49.0877 57.7718 49.0877 57.7718C48.8648 54.7218 48.5623 51.0846 48.6745 48.7244C40.5218 50.4584 36.8033 51.3107 32.2747 51.4718H32.2731Z" fill="#FDCA9A"/>
<path d="M53.3836 36.9768C53.3836 36.9768 58.9532 23.5717 50.1693 19.5197C41.5774 16.0143 31.1587 19.414 31.1587 19.414C29.049 21.104 25.2605 26.4573 27.7981 36.1977C31.3979 37.2046 53.3836 36.9785 53.3836 36.9785V36.9768Z" fill="black"/>
<path d="M27.7948 36.0381C25.3662 36.7473 25.7485 40.5244 28.0827 42.1022C27.8843 39.0994 27.8013 36.583 27.7948 36.0381Z" fill="#FDCA9A"/>
<path d="M49.5334 36.2104C53.4959 32.0251 59.7488 40.8578 50.472 44.1891C49.3643 39.8655 48.2028 36.6366 49.5334 36.2104Z" fill="#FFE0C2"/>
<path d="M53.5837 58.9004C52.5231 66.7896 30.648 67.9803 27.6891 58.9004L29.9908 58.2822C32.4731 64.3935 49.966 64.5204 51.0802 58.2822C52.5442 58.6222 53.5837 58.9004 53.5837 58.9004Z" fill="#3C88D2"/>
<path d="M37.693 54.9724C34.3193 54.9724 29.1157 48.9896 28.3577 44.5765C28.2568 42.4651 28.0632 42.0113 27.8176 38.0423C27.2548 28.9396 28.3918 22.3175 37.109 20.9836C49.9562 23.487 48.938 38.8491 50.6768 43.8022C50.0083 49.2124 44.1605 54.6552 37.6913 54.9724H37.693Z" fill="#FFE0C2"/>
<path d="M37.9102 36.6948L34.8804 36.3045L34.0726 42.5755C33.965 43.4112 34.5567 44.1779 35.3924 44.2855C36.2281 44.3932 36.9948 43.8015 37.1024 42.9658L37.9102 36.6948Z" fill="url(#paint0_linear_1494_612)"/>
<path d="M42.3745 38.9043C41.7376 38.9043 41.2212 38.2488 41.2212 37.4403C41.2212 36.6318 41.7376 35.9763 42.3745 35.9763C43.0114 35.9763 43.5278 36.6318 43.5278 37.4403C43.5278 38.2488 43.0114 38.9043 42.3745 38.9043Z" fill="#252836"/>
<path d="M31.5248 38.5217C31.0361 38.5217 30.6399 38.0185 30.6399 37.3977C30.6399 36.7769 31.0361 36.2737 31.5248 36.2737C32.0135 36.2737 32.4097 36.7769 32.4097 37.3977C32.4097 38.0185 32.0135 38.5217 31.5248 38.5217Z" fill="#252836"/>
<path d="M45.7417 34.2454C45.7319 33.7151 43.7523 31.4134 39.8207 33.7736C39.5881 33.8956 39.5734 34.2226 39.8971 34.2242L45.7417 34.2437V34.2454Z" fill="#252836"/>
<path d="M29.2702 34.1707C29.2767 33.7884 30.5488 31.8511 33.3433 33.8307C33.5027 33.9185 33.5141 34.1544 33.2913 34.156L29.2702 34.1707Z" fill="#252836"/>
<path d="M39.8597 47.4424C37.2261 47.6002 35.1879 47.3839 32.6113 47.2358C32.6113 47.2358 35.2937 50.0808 39.8597 47.4424Z" fill="#F1B67E"/>
<path d="M27.9218 30.6505C28.6212 27.2086 28.8457 21.7886 38.591 21.1038C42.2688 22.3075 44.6177 24.235 46.176 26.3253C42.8186 29.289 31.1946 31.0621 27.9218 30.6505Z" fill="url(#paint1_linear_1494_612)"/>
<path d="M48.7199 20.1716C41.3008 8.80303 32.7284 21.8731 29.0798 15.7618C28.6341 16.6841 25.049 25.3525 35.3212 27.6184C40.9608 28.6611 51.8236 27.0914 48.7199 20.1716Z" fill="#1A1C23"/>
<path d="M50.6667 20H52.6667V22" stroke="white" stroke-linecap="square"/>
<path d="M25.3334 58L23.3334 58L23.3334 56" stroke="white" stroke-linecap="square"/>
<path d="M23.3334 22L23.3334 20L25.3334 20" stroke="white" stroke-linecap="square"/>
<path d="M52.6667 56L52.6667 58L50.6667 58" stroke="white" stroke-linecap="square"/>
<rect x="24.9167" y="21.5833" width="26.1667" height="34.1667" fill="white" fill-opacity="0.1" stroke="white" stroke-width="0.5" stroke-dasharray="1 1"/>
<defs>
<linearGradient id="paint0_linear_1494_612" x1="35.8097" y1="41.046" x2="36.1999" y2="38.0162" gradientUnits="userSpaceOnUse">
<stop stop-color="#FDCA9A"/>
<stop offset="1" stop-color="#FFE0C2"/>
</linearGradient>
<linearGradient id="paint1_linear_1494_612" x1="42.5372" y1="22.8573" x2="26.6172" y2="31.3402" gradientUnits="userSpaceOnUse">
<stop stop-color="#FDCA9A"/>
<stop offset="1" stop-color="#FFE0C2"/>
</linearGradient>
</defs>
</svg>
