<svg width="18" height="18" viewBox="0 0 18 18" fill="none" xmlns="http://www.w3.org/2000/svg">
<path d="M9 16.25C4.99594 16.25 1.75 13.0041 1.75 9H0.25C0.25 13.8325 4.16751 17.75 9 17.75V16.25ZM1.75 9C1.75 4.99594 4.99594 1.75 9 1.75V0.25C4.16751 0.25 0.25 4.16751 0.25 9H1.75ZM9 1.75C13.0041 1.75 16.25 4.99594 16.25 9H17.75C17.75 4.16751 13.8325 0.25 9 0.25V1.75ZM16.25 9C16.25 13.0041 13.0041 16.25 9 16.25V17.75C13.8325 17.75 17.75 13.8325 17.75 9H16.25Z" fill="#1967B2"/>
<path d="M6.572 11.691V13H11.566V11.735H8.519L8.486 11.669C9.355 10.8 9.949 10.206 10.279 9.887C11.071 9.117 11.467 8.314 11.467 7.5C11.467 7.093 11.357 6.719 11.159 6.389C10.95 6.059 10.664 5.795 10.29 5.597C9.916 5.399 9.476 5.3 8.981 5.3C8.53 5.3 8.134 5.388 7.793 5.553C7.441 5.729 7.166 5.949 6.946 6.213C6.726 6.477 6.583 6.752 6.506 7.038L7.804 7.577C7.881 7.313 8.013 7.093 8.211 6.917C8.398 6.741 8.651 6.653 8.959 6.653C9.267 6.653 9.52 6.741 9.718 6.917C9.905 7.093 10.004 7.313 10.004 7.566C10.004 7.808 9.949 8.028 9.85 8.215C9.751 8.413 9.575 8.644 9.311 8.93C9.003 9.26 8.09 10.184 6.572 11.691Z" fill="#1967B2"/>
</svg>
