<svg width="18" height="18" viewBox="0 0 18 18" fill="none" xmlns="http://www.w3.org/2000/svg">
<path d="M9 16.25C4.99594 16.25 1.75 13.0041 1.75 9H0.25C0.25 13.8325 4.16751 17.75 9 17.75V16.25ZM1.75 9C1.75 4.99594 4.99594 1.75 9 1.75V0.25C4.16751 0.25 0.25 4.16751 0.25 9H1.75ZM9 1.75C13.0041 1.75 16.25 4.99594 16.25 9H17.75C17.75 4.16751 13.8325 0.25 9 0.25V1.75ZM16.25 9C16.25 13.0041 13.0041 16.25 9 16.25V17.75C13.8325 17.75 17.75 13.8325 17.75 9H16.25Z" fill="#1967B2"/>
<path d="M7.441 12.67C7.925 13.011 8.497 13.176 9.135 13.176C9.652 13.176 10.114 13.077 10.51 12.879C10.906 12.681 11.225 12.417 11.445 12.065C11.665 11.724 11.775 11.339 11.775 10.899C11.775 10.459 11.654 10.074 11.434 9.755C11.203 9.447 10.906 9.216 10.543 9.062V8.974C10.807 8.842 11.027 8.633 11.214 8.347C11.401 8.061 11.5 7.72 11.5 7.313C11.5 6.939 11.39 6.598 11.192 6.29C10.983 5.982 10.697 5.74 10.323 5.564C9.949 5.388 9.531 5.3 9.069 5.3C8.431 5.3 7.903 5.465 7.485 5.784C7.067 6.114 6.792 6.488 6.638 6.928L7.947 7.467C8.013 7.225 8.145 7.027 8.332 6.862C8.508 6.708 8.75 6.62 9.058 6.62C9.344 6.62 9.575 6.708 9.762 6.862C9.938 7.027 10.037 7.236 10.037 7.478C10.037 7.786 9.916 8.028 9.696 8.182C9.476 8.347 9.201 8.424 8.882 8.424H8.288V9.733H8.937C9.355 9.733 9.685 9.832 9.927 10.019C10.169 10.206 10.301 10.459 10.301 10.767C10.301 11.064 10.18 11.306 9.949 11.493C9.718 11.691 9.443 11.779 9.135 11.779C8.783 11.779 8.497 11.691 8.277 11.493C8.046 11.295 7.892 11.02 7.804 10.657L6.44 11.196C6.616 11.845 6.957 12.34 7.441 12.67Z" fill="#1967B2"/>
</svg>
