<svg width="80" height="80" viewBox="0 0 80 80" fill="none" xmlns="http://www.w3.org/2000/svg">
<ellipse cx="40" cy="39.9927" rx="40" ry="39.9927" fill="#003069"/>
<path d="M29.2717 58.2718C36.115 56.299 46.4263 56.569 50.3611 58.2718C61.3247 61.1309 66.4659 61.6382 68.3333 68.3208C54.6667 81.6517 30 85.9843 11.6667 68.3208C11.3333 67.6543 15.4273 61.6448 29.2717 58.2718Z" fill="#1967B2"/>
<path d="M48.0804 51.4625C48.0593 51.5828 48.2171 56.9579 48.3667 57.6345C48.9361 57.7678 50.361 58.2704 50.361 58.2704C48.6205 63.9658 30.7664 64.7611 29.2716 58.2704C31.0544 57.8036 31.2658 57.7613 31.2658 57.7613C31.4887 54.7119 31.7912 51.0754 31.679 48.7156C39.8317 50.4493 43.5502 51.3015 48.0788 51.4625H48.0804Z" fill="#FDCA9A"/>
<path d="M26.97 36.9699C26.97 36.9699 21.4004 23.5672 30.1842 19.516C38.7762 16.0112 49.1948 19.4103 49.1948 19.4103C51.3046 21.1 55.093 26.4524 52.5555 36.1909C48.9557 37.1976 26.97 36.9716 26.97 36.9716V36.9699Z" fill="black"/>
<path d="M52.5587 36.0315C54.9868 36.7406 54.6046 40.517 52.2708 42.0945C52.4692 39.0923 52.5522 36.5763 52.5587 36.0315Z" fill="#FDCA9A"/>
<path d="M30.8201 36.2039C26.8576 32.0193 20.6048 40.8504 29.8816 44.1811C30.9893 39.8583 32.1507 36.63 30.8201 36.2039Z" fill="#FFE0C2"/>
<path d="M26.7699 58.8895C27.8305 66.7773 49.7056 67.9678 52.6644 58.8895L50.3627 58.2715C47.8805 64.3817 30.3875 64.5085 29.2733 58.2715C27.8093 58.6114 26.7699 58.8895 26.7699 58.8895Z" fill="#3C88D2"/>
<path d="M42.6606 54.9623C46.0343 54.9623 51.2379 48.9806 51.9959 44.5683C52.0968 42.4573 52.2903 42.0035 52.536 38.0352C53.0988 28.9342 51.9618 22.3133 43.2446 20.9797C30.3973 23.4827 31.4156 38.8419 29.6767 43.7941C30.3453 49.2034 36.1931 54.6451 42.6622 54.9623H42.6606Z" fill="#FFE0C2"/>
<path d="M42.4433 36.6882L45.4726 36.2981L46.2804 42.5679C46.388 43.4034 45.7964 44.17 44.9609 44.2776C44.1253 44.3852 43.3588 43.7936 43.2511 42.958L42.4433 36.6882Z" fill="url(#paint0_linear_1494_639)"/>
<path d="M37.9788 38.8972C38.6157 38.8972 39.1319 38.2418 39.1319 37.4334C39.1319 36.6251 38.6157 35.9697 37.9788 35.9697C37.342 35.9697 36.8257 36.6251 36.8257 37.4334C36.8257 38.2418 37.342 38.8972 37.9788 38.8972Z" fill="#252836"/>
<path d="M48.8286 38.5147C49.3172 38.5147 49.7133 38.0116 49.7133 37.3909C49.7133 36.7702 49.3172 36.2671 48.8286 36.2671C48.34 36.2671 47.9439 36.7702 47.9439 37.3909C47.9439 38.0116 48.34 38.5147 48.8286 38.5147Z" fill="#252836"/>
<path d="M34.612 34.2392C34.6217 33.709 36.6013 31.4077 40.5329 33.7676C40.7655 33.8896 40.7802 34.2164 40.4565 34.2181L34.612 34.2376V34.2392Z" fill="#252836"/>
<path d="M51.0826 34.1646C51.0761 33.7824 49.8043 31.8454 47.0102 33.8247C46.8508 33.9125 46.8395 34.1483 47.0623 34.1499L51.0826 34.1646Z" fill="#252836"/>
<path d="M40.4939 47.4338C43.1274 47.5916 45.1656 47.3753 47.7422 47.2273C47.7422 47.2273 45.0599 50.0718 40.4939 47.4338Z" fill="#F1B67E"/>
<path d="M52.4317 30.6451C51.7323 27.2038 51.5078 21.7848 41.7626 21.1001C38.0847 22.3036 35.7359 24.2308 34.1775 26.3207C37.5349 29.2839 49.1589 31.0566 52.4317 30.6451Z" fill="url(#paint1_linear_1494_639)"/>
<path d="M31.6336 20.1681C39.0528 8.80153 47.6252 21.8692 51.2737 15.759C51.7194 16.6812 55.3046 25.348 45.0323 27.6135C39.3927 28.656 28.53 27.0866 31.6336 20.1681Z" fill="#1A1C23"/>
<path d="M55.3333 19.9963H57.3329V21.996" stroke="white" stroke-linecap="square"/>
<path d="M30 57.9895L28.0003 57.9895L28.0003 55.9899" stroke="white" stroke-linecap="square"/>
<path d="M28 21.9961L28 19.9965L29.9996 19.9965" stroke="white" stroke-linecap="square"/>
<path d="M57.3333 55.9897L57.3333 57.9894L55.3337 57.9894" stroke="white" stroke-linecap="square"/>
<rect x="29.5831" y="21.5793" width="26.1667" height="34.1603" fill="white" fill-opacity="0.1" stroke="white" stroke-width="0.5" stroke-dasharray="1 1"/>
<defs>
<linearGradient id="paint0_linear_1494_639" x1="44.5436" y1="41.0386" x2="44.1535" y2="38.0094" gradientUnits="userSpaceOnUse">
<stop stop-color="#FDCA9A"/>
<stop offset="1" stop-color="#FFE0C2"/>
</linearGradient>
<linearGradient id="paint1_linear_1494_639" x1="37.8163" y1="22.8533" x2="53.735" y2="31.3371" gradientUnits="userSpaceOnUse">
<stop stop-color="#FDCA9A"/>
<stop offset="1" stop-color="#FFE0C2"/>
</linearGradient>
</defs>
</svg>
